<svg width="25" height="24" viewBox="0 0 25 24" fill="none" xmlns="http://www.w3.org/2000/svg">
<path d="M3.83369 8.62365C3.07074 9.2301 2.58167 10.5115 2.74795 11.4701L4.04888 19.2561C4.28364 20.645 5.6139 21.7699 7.02243 21.7699H17.9776C19.3764 21.7699 20.7164 20.6352 20.9512 19.2561L22.2521 11.4701C22.4086 10.5115 21.9195 9.2301 21.1664 8.62365L14.3878 3.20477C13.3412 2.36356 11.6491 2.36355 10.6122 3.19498L3.83369 8.62365Z" stroke="black" stroke-width="1.46721" stroke-linecap="round" stroke-linejoin="round"/>
<path fill-rule="evenodd" clip-rule="evenodd" d="M12.5 15.5977C11.1495 15.5977 10.0547 14.5029 10.0547 13.1524C10.0547 11.8019 11.1495 10.707 12.5 10.707C13.8505 10.707 14.9454 11.8019 14.9454 13.1524C14.9454 14.5029 13.8505 15.5977 12.5 15.5977Z" stroke="black" stroke-width="1.46721" stroke-linecap="round" stroke-linejoin="round"/>
</svg>
